<svg width="16" height="20" viewBox="0 0 16 20" fill="none" xmlns="http://www.w3.org/2000/svg">
<path d="M12.7387 10.5233C12.7174 8.2201 14.6758 7.0996 14.7653 7.04743C13.6562 5.47316 11.9372 5.25806 11.3331 5.24091C9.88928 5.09299 8.48879 6.082 7.7533 6.082C7.00314 6.082 5.87056 5.2552 4.64989 5.2795C3.0791 5.30308 1.60961 6.18848 0.803663 7.56338C-0.859612 10.3668 0.380871 14.4865 1.97441 16.7525C2.77155 17.8623 3.70302 19.1014 4.92221 19.0578C6.11499 19.0099 6.56053 18.3175 7.99993 18.3175C9.42612 18.3175 9.84451 19.0578 11.0879 19.0299C12.368 19.0099 13.174 17.9151 13.9432 16.7954C14.8644 15.5234 15.2344 14.2707 15.2491 14.2063C15.219 14.1963 12.7629 13.2838 12.7387 10.5233Z" fill="white"/>
<path d="M10.3899 3.75026C11.0315 2.9692 11.4704 1.90659 11.3486 0.828247C10.42 0.868265 9.25883 1.45353 8.59014 2.21744C7.99853 2.8906 7.47003 3.99395 7.60656 5.03155C8.6496 5.1073 9.72052 4.51918 10.3899 3.75026Z" fill="white"/>
</svg>
