<svg width="19" height="20" viewBox="0 0 19 20" fill="none" xmlns="http://www.w3.org/2000/svg">
<path d="M1.04256 0.693614C0.791465 0.986946 0.664729 1.36246 0.688184 1.74361V18.3336C0.664729 18.7148 0.791465 19.0903 1.04256 19.3836L1.09648 19.4361L10.6414 10.1511V9.93361L1.09648 0.641113L1.04256 0.693614Z" fill="url(#paint0_linear_18013_41)"/>
<path d="M13.7999 13.2486L10.6414 10.1511V9.93361L13.7999 6.82861L13.8692 6.86611L17.6517 8.95861C18.7302 9.55111 18.7302 10.5261 17.6517 11.1261L13.8846 13.2111L13.7999 13.2486Z" fill="url(#paint1_linear_18013_41)"/>
<path d="M13.8924 13.2036L10.6414 10.0386L1.0426 19.3836C1.26244 19.5717 1.54287 19.6792 1.83545 19.6874C2.12803 19.6956 2.41436 19.6041 2.64497 19.4286L13.9001 13.2036" fill="url(#paint2_linear_18013_41)"/>
<path d="M13.8923 6.87361L2.63716 0.64861C2.40655 0.473121 2.12022 0.381574 1.82764 0.389791C1.53506 0.398007 1.25462 0.505472 1.03479 0.693612L10.6413 10.0386L13.8923 6.87361Z" fill="url(#paint3_linear_18013_41)"/>
<path opacity="0.2" d="M13.7999 13.1361L2.63727 19.3236C2.41486 19.4855 2.1446 19.573 1.8669 19.573C1.58919 19.573 1.31894 19.4855 1.09653 19.3236L1.0426 19.3761L1.09653 19.4286C1.31844 19.5917 1.58888 19.6799 1.8669 19.6799C2.14492 19.6799 2.41536 19.5917 2.63727 19.4286L13.8924 13.2036L13.7999 13.1361Z" fill="black"/>
<path opacity="0.12" d="M1.04256 19.2786C0.791465 18.9852 0.664729 18.6097 0.688184 18.2286V18.3411C0.664729 18.7222 0.791465 19.0977 1.04256 19.3911L1.09648 19.3386L1.04256 19.2786ZM17.6517 11.0136L13.7999 13.1361L13.8692 13.2036L17.6517 11.1186C17.8664 11.0204 18.0506 10.8689 18.1859 10.6793C18.3211 10.4896 18.4026 10.2686 18.4221 10.0386C18.3788 10.2476 18.2868 10.4442 18.1533 10.6132C18.0197 10.7822 17.8481 10.9192 17.6517 11.0136Z" fill="black"/>
<path opacity="0.25" d="M2.63704 0.753284L17.6516 9.06329C17.848 9.15767 18.0195 9.29463 18.1531 9.46365C18.2866 9.63268 18.3786 9.82926 18.4219 10.0383C18.4024 9.80821 18.3209 9.58721 18.1857 9.39759C18.0504 9.20797 17.8662 9.05644 17.6516 8.95828L2.63704 0.648283C1.55852 0.0557828 0.680298 0.550784 0.680298 1.75078V1.86328C0.703409 0.655784 1.56622 0.160784 2.63704 0.753284Z" fill="white"/>
<defs>
<linearGradient id="paint0_linear_18013_41" x1="9.79396" y1="1.57111" x2="-2.78652" y2="14.4933" gradientUnits="userSpaceOnUse">
<stop stop-color="#00A0FF"/>
<stop offset="0.01" stop-color="#00A1FF"/>
<stop offset="0.26" stop-color="#00BEFF"/>
<stop offset="0.51" stop-color="#00D2FF"/>
<stop offset="0.76" stop-color="#00DFFF"/>
<stop offset="1" stop-color="#00E3FF"/>
</linearGradient>
<linearGradient id="paint1_linear_18013_41" x1="19.0615" y1="10.0386" x2="0.426251" y2="10.0386" gradientUnits="userSpaceOnUse">
<stop stop-color="#FFE000"/>
<stop offset="0.41" stop-color="#FFBD00"/>
<stop offset="0.78" stop-color="#FFA500"/>
<stop offset="1" stop-color="#FF9C00"/>
</linearGradient>
<linearGradient id="paint2_linear_18013_41" x1="12.1282" y1="11.7636" x2="-4.93584" y2="29.2834" gradientUnits="userSpaceOnUse">
<stop stop-color="#FF3A44"/>
<stop offset="1" stop-color="#C31162"/>
</linearGradient>
<linearGradient id="paint3_linear_18013_41" x1="-1.37647" y1="-4.82639" x2="6.2408" y2="2.99776" gradientUnits="userSpaceOnUse">
<stop stop-color="#32A071"/>
<stop offset="0.07" stop-color="#2DA771"/>
<stop offset="0.48" stop-color="#15CF74"/>
<stop offset="0.8" stop-color="#06E775"/>
<stop offset="1" stop-color="#00F076"/>
</linearGradient>
</defs>
</svg>
